# xmcd
#
# Track frame offsets:
#	150
#	10199
#	20414
#	32825
#	45508
#	55839
#	62163
#	75909
#	86530
#	113322
#	126834
#	141380
#	149878
#	160338
#	182502
#	200122
#	222307
#	306625
#	318416
#	330417
#	352019
#
# Disc length: 4916 seconds
#
# Revision: 0
# Processed by: cddbd v1.5.2PL0 Copyright (c) Steve Scherf et al.
# Submitted via: audiograbber 1.83.01
#
DISCID=33133215
DTITLE=Chuck Berry - Rock And Roll Music - Any Old Way You Choose It [CD 07) - 
DTITLE=Studio 1967-1969
DYEAR=2014
DGENRE=Rock and Roll
TTITLE0=Sweet Little Rock'n'Roller [1967]
TTITLE1=Oh Baby Doll [1967]
TTITLE2=I Can't Believe [1968]
TTITLE3=Soul Rockin' [1968]
TTITLE4=Ma Dear [1968]
TTITLE5=Rock Cradle Rock [1968]
TTITLE6=The Love I Lost [1968]
TTITLE7=Louie To Frisco [1968]
TTITLE8=I Love Her, I Love Her [1968]
TTITLE9=Little Fox [1968]
TTITLE10=Song Of My Love [1989]
TTITLE11=Rock Cradle Rock [alternate take] [mono 2014]
TTITLE12=Good Lookin' Woman [1969]
TTITLE13=My Woman [1969]
TTITLE14=It's Too Dark In There [1969]
TTITLE15=Put Her Down [1969]
TTITLE16=Concerto In B Goode [instrumental] [1969]
TTITLE17=Tulane [1970]
TTITLE18=Have Mercy Judge [1970]
TTITLE19=Untitled instrumental [2010]
TTITLE20=My Ding-A-Ling [2010]
EXTD=
EXTT0=
EXTT1=
EXTT2=
EXTT3=
EXTT4=
EXTT5=
EXTT6=
EXTT7=
EXTT8=
EXTT9=
EXTT10=
EXTT11=
EXTT12=
EXTT13=
EXTT14=
EXTT15=
EXTT16=
EXTT17=
EXTT18=
EXTT19=
EXTT20=
PLAYORDER=
